<svg width="503.84" height="1655.72486" xmlns="http://www.w3.org/2000/svg" xmlns:xlink="http://www.w3.org/1999/xlink"><defs><symbol id="arrow" viewBox="0 0 39 32">
<polygon points="22.8,31.7 21.4,30.3 34.7,17 0.9,17 0.9,15 34.7,15 21.4,1.7 22.8,0.3 37.8,15.3 37.1,16 37.8,16.7 " />
</symbol><symbol viewBox="0 0 17 17" id="arrow-top-right">
    <path fill-rule="evenodd" clip-rule="evenodd" d="M0.553773 0.783154C0.553773 0.35063 0.904403 0 1.33693 0H16C16.5523 0 17 0.447716 17 1V15.6631C17 16.0956 16.6494 16.4462 16.2168 16.4462C15.7843 16.4462 15.4337 16.0956 15.4337 15.6631V5.08807C15.4337 4.19716 14.3566 3.75099 13.7266 4.38096L1.66132 16.4462C1.35548 16.7521 0.859614 16.7521 0.553773 16.4462C0.247933 16.1404 0.247932 15.6445 0.553773 15.3387L12.619 3.27341C13.249 2.64345 12.8028 1.56631 11.9119 1.56631H1.33693C0.904403 1.56631 0.553773 1.21568 0.553773 0.783154Z" />
</symbol><symbol id="arrow-top-right-small" viewBox="0 0 10 10">
<style type="text/css">
	#arrow-top-right-small .st0{fill:#362724;}
</style>
<polygon class="st0" points="0.7,0 0.7,2 6.6,2 0,8.6 1.4,10 8,3.4 8,9.3 10,9.3 10,0 " />
</symbol><symbol id="chevron-down" viewBox="0 0 44.48486 26.48486">
  <polygon points="22.243 26.485 0 4.243 4.243 0 22.243 18 40.243 0 44.485 4.243 22.243 26.485" />
</symbol><symbol viewBox="0 0 110 109" fill="none" id="close">
<path d="M1.7071 1L108.707 108M108 1L1 108" stroke-width="1.8" />
</symbol><symbol viewBox="0 0 126 21" id="logo">
<path d="M0.537464 9.39065C0.985351 7.08817 3.00084 5.46289 5.86732 5.46289C9.18168 5.46289 11.7346 6.86244 11.7346 11.3771V19.7744H8.91295L8.55464 17.9685C7.56929 19.1875 6.27042 20.0001 4.25492 20.0001C1.88112 20.0001 0 18.5103 0 15.7112C0 12.9121 2.46338 11.1062 5.95689 11.1062H8.28591V10.4742C8.28591 8.89404 7.1214 8.39743 5.82253 8.39743C4.83718 8.39743 3.85183 8.71345 3.40394 10.0227L0.537464 9.39065ZM5.06112 17.0656C6.62873 17.0656 8.28591 15.9821 8.28591 14.1762V13.9053H6.00168C4.52366 13.8602 3.62788 14.4471 3.62788 15.666C3.62788 16.3432 4.12056 17.0656 5.06112 17.0656Z" />
<path d="M67.6293 9.39066C68.0771 7.08817 70.0926 5.46289 72.9591 5.46289C76.2735 5.46289 78.8264 6.86244 78.8264 11.3771V19.7744H76.0047L75.6464 17.9685C74.6611 19.1875 73.3622 20.0001 71.3467 20.0001C68.9729 20.0001 67.0918 18.5103 67.0918 15.7112C67.0918 12.9121 69.5552 11.1062 73.0487 11.1062H75.3777V10.4742C75.3777 8.89404 74.2132 8.39743 72.9143 8.39743C71.929 8.39743 70.9436 8.71346 70.4957 10.0227L67.6293 9.39066ZM72.1529 17.0656C73.7205 17.0656 75.3777 15.9821 75.3777 14.1762V13.9053H73.0935C71.6154 13.9053 70.7197 14.4471 70.7197 15.7112C70.7197 16.3433 71.2124 17.0656 72.1529 17.0656Z" />
<path d="M81.9609 19.8196V5.68862H85.4097V7.99111C86.395 6.32068 87.9626 5.46289 89.5302 5.46289C90.1573 5.46289 90.6499 5.55318 91.2322 5.73377L90.6052 8.93919C90.2021 8.66831 89.7542 8.53287 89.1719 8.53287C87.1564 8.53287 85.4097 10.2033 85.4097 14.7631V19.7744L81.9609 19.8196Z" />
<path d="M98.5797 5.46275C100.013 5.46275 101.357 6.1851 101.984 6.9526V0H105.432V19.8194H101.984V18.3747C101.581 19.0971 100.326 20.0451 98.5797 20.0451C94.3696 20.0451 92.2197 17.1106 92.2197 12.7765C92.2197 8.44244 94.3696 5.46275 98.5797 5.46275ZM99.0724 17.0655C100.864 17.0655 102.297 15.5756 102.297 12.7765C102.297 9.97743 100.864 8.48758 99.0724 8.48758C97.2809 8.48758 95.8476 9.97743 95.8476 12.7765C95.8476 15.5756 97.2809 17.0655 99.0724 17.0655Z" />
<path d="M117.882 7.71996L115.822 9.61613C115.195 8.75834 114.254 8.39717 113.493 8.39717C112.821 8.39717 112.194 8.80349 112.194 9.57098C112.194 10.203 112.686 10.6545 113.537 10.9254C115.463 11.6477 118.599 12.2346 118.599 15.2595C118.599 17.8328 116.673 19.9547 113.627 19.9547C110.716 19.9547 108.745 17.878 108.073 16.1624L110.805 14.6726C111.298 16.027 112.239 17.0202 113.627 17.0202C114.702 17.0202 115.374 16.5236 115.374 15.4852C115.374 14.3114 113.582 14.0405 111.88 13.3182C110.357 12.6861 109.059 11.6929 109.059 9.52583C109.059 7.35879 110.805 5.41748 113.537 5.41748C115.374 5.41748 117.031 6.36556 117.882 7.71996Z" />
<path d="M46.1311 5.68799L43.6677 15.3945L41.2939 5.68799H38.0692L35.7401 15.3945L33.7694 9.75119L33.5455 10.4284L32.4258 14.0401L34.2173 19.8189H37.263L39.6815 10.6993L42.1001 19.8189H45.1458L49.6246 5.68799H46.1311Z" />
<path d="M62.7921 5.68799L60.284 15.3945L57.9102 5.68799H54.6854L52.3564 15.3945L50.3857 9.75119L50.1617 10.4284L49.042 14.0401L50.8335 19.8189H53.8792L56.2978 10.6993L58.7164 19.8189H61.762L66.2408 5.68799H62.7921Z" />
<path d="M33.0112 5.68848L28.5323 19.7743H25.4867L23.0681 10.6546L20.6495 19.8194H17.6039L13.125 5.73362H16.6185L19.1267 15.395L21.5005 5.73362H24.6805L27.0543 15.395L29.5625 5.73362L33.0112 5.68848Z" />
<path d="M123.077 15.2598C124.421 15.2598 125.406 16.253 125.406 17.6074C125.406 18.9618 124.421 19.955 123.077 19.955C121.733 19.955 120.748 18.9618 120.748 17.6074C120.748 16.253 121.778 15.2598 123.077 15.2598Z" />
</symbol><symbol id="partner-5" viewBox="0 0 195.7 144.4">
<g>
	<defs>
		<rect id="partner-5_SVGID_1_" x="38.2" y="26.4" width="119.3" height="91.6" />
	</defs>
	
</g>
<path d="M141.1,60.5c0.1-0.8,0.1-1.6,0.1-2.5c0-17.1-13.9-31-31-31H52v14.3H37.7V89L52,89v14.3h14.4v14.3h58
	c17.1,0,31-13.9,31-31C155.5,76.1,150,66.2,141.1,60.5z M56.6,31.6h53.7c14.6,0,26.4,11.9,26.4,26.4c0,14.6-11.9,26.4-26.4,26.4H110
	c1.3-3.1,2.1-6.5,2.4-10c8.1-1.1,14.4-8,14.4-16.5c0-9.2-7.5-16.6-16.6-16.6H83v0c-0.5,0-1,0-1.4,0h-25V31.6z M107.6,89h2.6
	c9.2,0,17.5-4,23.1-10.4c2,2.2,3.2,5.1,3.2,8.2c0,6.7-5.4,12.1-12.1,12.1l-26.9,0C101.6,96.4,105.1,93,107.6,89z M97.7,46h12.5
	c5.9,0,10.7,4.2,11.8,9.7h-14.5C105.1,51.7,101.7,48.4,97.7,46z M122.1,60.2c-0.9,4.9-4.8,8.8-9.7,9.7c-0.3-3.4-1.1-6.7-2.4-9.7
	H122.1z M66.4,70.1V89h15.2c9.2,0,16.6-7.5,16.6-16.6c0-9.2-7.5-16.6-16.6-16.6H52v28.7l-9.8,0V45.9h39.3
	c14.6,0,26.4,11.9,26.4,26.4c0,14.6-11.9,26.4-26.4,26.4h-25V60.3h25c5.9,0,10.8,4.2,11.9,9.8H66.4z M93.4,74.6
	c-1.1,5.6-6,9.8-11.9,9.8H70.9v-9.8H93.4z M124.5,113.1H71v-9.7h10.6c0,0,0.1,0,0.1,0v0l42.9,0c9.2,0,16.6-7.5,16.6-16.6
	c0-4.5-1.8-8.7-4.9-11.8c1.9-2.9,3.3-6.1,4.1-9.5c6.6,5,10.6,12.8,10.6,21.2C150.9,101.2,139.1,113.1,124.5,113.1z" />
</symbol><clipPath id="partner-5_SVGID_2_">
		<use xlink:href="#partner-5_SVGID_1_" style="overflow:visible;" />
	</clipPath><symbol viewBox="0 0 200 51" id="partner-adobe">
<g clip-path="url(#partner-adobe_clip0)">
<path d="M35.9326 0L57.0706 50.4425V0H35.9326ZM0 0V50.4425L21.138 0H0ZM19.3256 40.1558H28.9779L33.2139 50.4214H41.96L28.3878 18.4232L19.3256 40.1558Z" />
<path d="M92.4971 32.5466L90.1789 39.5238C90.0946 39.7767 89.9682 39.8611 89.7153 39.8611H85.4792C85.2263 39.8611 85.142 39.7346 85.1842 39.4395L93.9091 14.6293C94.0777 14.2077 94.2042 13.7861 94.2885 12.3527C94.2885 12.1841 94.3728 12.0576 94.5414 12.0576H100.421C100.632 12.0576 100.674 12.0998 100.716 12.3106L110.495 39.5027C110.537 39.7557 110.495 39.8821 110.242 39.8821H105.5C105.29 39.8821 105.163 39.7978 105.079 39.6292L102.613 32.5677H92.4971V32.5466ZM101.264 27.9302C100.379 25.1267 98.377 19.2456 97.534 16.2945H97.4919C96.8175 19.1402 95.1104 24.0938 93.8459 27.9302H101.264Z" />
<path d="M112.013 29.6165C112.013 23.4825 116.586 18.571 124.046 18.571C124.636 18.571 125.142 18.6132 125.859 18.6975V10.0129C125.859 9.80209 125.943 9.71777 126.112 9.71777H130.727C130.938 9.71777 130.938 9.80209 130.938 9.97072V35.5398C130.938 36.3829 131.022 37.479 131.106 38.259C131.106 38.4698 131.064 38.5541 130.854 38.6384C128.093 39.8188 125.395 40.2826 122.845 40.2826C116.712 40.3037 112.013 36.7413 112.013 29.6165ZM125.859 23.1452C125.311 22.9344 124.636 22.8501 123.878 22.8501C120.105 22.8501 117.281 25.2742 117.281 29.3636C117.281 33.9799 120.042 35.877 123.414 35.877C124.257 35.877 125.1 35.7927 125.88 35.5398V23.1452H125.859Z" />
<path d="M155.364 29.3207C155.364 35.8763 151.17 40.2819 145.206 40.2819C138.124 40.2819 135.005 34.8224 135.005 29.4472C135.005 23.4396 138.946 18.5703 145.29 18.5703C151.823 18.5703 155.364 23.5239 155.364 29.3207ZM140.169 29.3629C140.169 33.2625 142.065 35.9606 145.29 35.9606C147.924 35.9606 150.158 33.8106 150.158 29.4472C150.158 25.9269 148.641 22.8494 145.037 22.8494C142.213 22.8494 140.169 25.3367 140.169 29.3629Z" />
<path d="M164.089 9.71777C164.384 9.71777 164.468 9.75993 164.468 10.055L164.51 19.1612C165.648 18.7818 166.976 18.571 168.367 18.571C174.457 18.571 178.356 22.8923 178.356 28.5626C178.356 36.404 172.266 40.2826 165.985 40.2826C163.793 40.2826 161.665 39.9875 159.642 39.3551C159.473 39.3129 159.347 39.1021 159.347 38.9757V10.0129C159.347 9.80209 159.473 9.71777 159.642 9.71777H164.089ZM167.482 22.9344C166.006 22.9344 165.205 23.1452 164.51 23.3982V35.7716C165.1 35.9403 165.732 35.9824 166.449 35.9824C169.926 35.9824 173.13 33.7902 173.13 29.0895C173.151 25.0423 170.832 22.9344 167.482 22.9344Z" />
<path d="M186.533 30.6069C186.659 33.5791 188.598 35.94 192.919 35.94C194.815 35.94 196.565 35.6027 198.166 34.9282C198.293 34.8438 198.419 34.886 198.419 35.0968V38.617C198.419 38.87 198.335 38.9964 198.166 39.0808C196.565 39.8396 194.689 40.3034 191.823 40.3034C184.109 40.3034 181.37 34.886 181.37 29.6794C181.37 23.7984 184.931 18.5918 191.317 18.5918C197.576 18.5918 200 23.5032 200 27.5294C200 28.7098 199.958 29.6794 199.831 30.1643C199.789 30.3329 199.705 30.4172 199.494 30.4594C198.904 30.5859 197.218 30.628 195.132 30.628H186.533V30.6069ZM192.834 26.9602C194.436 26.9602 194.984 26.9602 195.153 26.9181C195.153 26.7916 195.153 26.623 195.153 26.5808C195.153 25.3582 194.31 22.639 191.085 22.639C188.156 22.639 186.849 24.8734 186.512 26.9602H192.834Z" />
</g>
<defs>

</defs>
</symbol><clipPath id="partner-adobe_clip0">
<rect width="200" height="50.4425" fill="white" />
</clipPath><symbol viewBox="0 0 178 58" id="partner-adyen">
<path d="M25.224 13.4141H0.607691V21.256H16.6523C17.642 21.256 18.4472 22.0612 18.4472 23.0509V36.9316H15.0168C14.0271 36.9316 13.222 36.1265 13.222 35.1368V25.1728H6.44515C2.97287 25.1728 0.154785 27.9909 0.154785 31.4632V38.4833C0.154785 41.9555 2.97287 44.7736 6.44515 44.7736H31.5143V19.7044C31.5143 16.2321 28.7046 13.4141 25.224 13.4141Z" />
<path d="M55.0321 36.9318H51.6018C50.6121 36.9318 49.8069 36.1267 49.8069 35.137V13.4143H43.0301C39.5578 13.4143 36.7397 16.2323 36.7397 19.7046V38.4835C36.7397 41.9557 39.5578 44.7738 43.0301 44.7738H68.0993V0.355469H55.0321V36.9318Z" />
<path d="M91.6083 36.9316H88.1779C87.1883 36.9316 86.3831 36.1265 86.3831 35.1368V13.4141H73.3159V38.4833C73.3159 41.9555 76.134 44.7736 79.6063 44.7736H91.6083V48.6904H73.7688V57.8324H98.3851C101.857 57.8324 104.675 55.0143 104.675 51.542V13.4141H91.6083V36.9316Z" />
<path d="M134.97 13.4141H109.901V38.4833C109.901 41.9555 112.719 44.7736 116.191 44.7736H140.808V36.9316H124.763C123.773 36.9316 122.968 36.1265 122.968 35.1368V21.256H126.398C127.388 21.256 128.193 22.0612 128.193 23.0509V33.0148H134.97C138.442 33.0148 141.26 30.1967 141.26 26.7245V19.7044C141.26 16.2321 138.442 13.4141 134.97 13.4141Z" />
<path d="M171.546 13.4141H146.477V44.7652H159.544V21.256H162.975C163.964 21.256 164.769 22.0612 164.769 23.0509V44.7736H177.837V19.7044C177.837 16.2321 175.019 13.4141 171.546 13.4141Z" />
</symbol><symbol viewBox="0 0 80 169" id="partner-locomotive">
<path d="M79.6895 0L76.7731 0V5.51575L73.2912 5.51575V1.87065L70.3748 1.87065V5.51575L41.4215 5.51575V1.83858L38.5051 1.83858V5.51575L9.27453 5.51575V1.87065L6.35813 1.87065L6.35813 5.51575H3.15342L3.15342 0L0.248108 0L0.248108 8.92568L6.35813 8.92568L6.35813 15.7562H6.21397L0.248108 15.4569L0.248108 19.0486L6.35813 19.2944L6.35813 23.3778L0.248108 23.6237L0.248108 27.226L6.35813 26.916L6.35813 34.3986H0.248108L0.248108 37.8085H6.35813L6.35813 47.0335H3.15342L3.15342 43.3243H0.248108L0.248108 54.0885H3.15342L3.15342 50.4114H6.35813L6.35813 59.786H4.65043C4.00503 59.8104 3.37294 59.9703 2.79833 60.2547C2.22372 60.539 1.72047 60.9409 1.32374 61.4322C0.42471 62.4946 -0.0441339 63.8353 0.0041509 65.2056C0.020611 66.6018 0.528937 67.9513 1.44572 69.0324C1.82505 69.5036 2.31084 69.8852 2.86616 70.1482C3.42148 70.4112 4.0317 70.5488 4.65043 70.5503H6.35813L6.35813 79.3904L0.248108 79.4653L0.248108 81.9666L6.35813 82.5118L6.35813 92.6988L0.248108 93.244L0.248108 95.7453L6.35813 95.8094L6.35813 104.842H4.65043C4.00414 104.868 3.37149 105.029 2.79682 105.315C2.22215 105.602 1.71938 106.006 1.32374 106.499C0.433089 107.549 -0.0353597 108.873 0.0041509 110.229C0.0204763 111.623 0.528965 112.969 1.44572 114.046C1.82166 114.523 2.30569 114.912 2.86102 115.183C3.41634 115.453 4.02832 115.598 4.65043 115.606H6.35813L6.35813 122.929H4.65043C4.00503 122.953 3.37294 123.113 2.79833 123.397C2.22372 123.681 1.72047 124.083 1.32374 124.575C0.440637 125.617 -0.0273438 126.928 0.0041509 128.273C0.020611 129.67 0.528937 131.019 1.44572 132.1C1.82505 132.571 2.31084 132.953 2.86616 133.216C3.42148 133.479 4.0317 133.616 4.65043 133.618H6.35813L6.35813 142.073H4.65043C4.00594 142.102 3.37536 142.264 2.8014 142.548C2.22744 142.832 1.72351 143.231 1.32374 143.719C0.419594 144.787 -0.0495662 146.137 0.0041509 147.514C0.020611 148.91 0.528937 150.26 1.44572 151.341C1.82505 151.812 2.31084 152.194 2.86616 152.457C3.42148 152.72 4.0317 152.857 4.65043 152.859H6.35813L6.35813 162.971H0.248108L0.248108 166.381H6.35813L6.35813 169H9.27453V166.381H70.3748V169H73.2912V166.381H79.6895V157.455H76.7731V162.971H73.2912V152.859H75.2872C75.9335 152.833 76.5661 152.672 77.1408 152.385C77.7155 152.099 78.2182 151.695 78.6139 151.202C79.4922 150.162 79.9563 148.855 79.9224 147.514C79.9114 146.12 79.4023 144.772 78.4808 143.698C78.1072 143.22 77.6251 142.832 77.0716 142.561C76.5181 142.291 75.9077 142.146 75.2872 142.137H73.2912V133.618H75.2872C75.9335 133.592 76.5661 133.431 77.1408 133.145C77.7155 132.858 78.2182 132.454 78.6139 131.961C79.4922 130.922 79.9563 129.614 79.9224 128.273C79.9095 126.876 79.4007 125.526 78.4808 124.446C78.1015 123.978 77.6173 123.598 77.0643 123.335C76.5112 123.072 75.9037 122.933 75.2872 122.929H73.5906V126.338H75.2872C75.5243 126.343 75.7573 126.399 75.9686 126.502C76.18 126.606 76.3641 126.755 76.507 126.937C76.8376 127.322 77.0181 127.806 77.0171 128.305C77.0207 128.808 76.84 129.297 76.507 129.684C76.3641 129.867 76.18 130.015 75.9686 130.119C75.7573 130.223 75.5243 130.279 75.2872 130.283H73.2912V115.606H75.2872C75.9326 115.582 76.5647 115.422 77.1393 115.138C77.7139 114.853 78.2171 114.451 78.6139 113.96C79.5205 112.916 80.0049 111.591 79.9778 110.229C79.9685 108.832 79.4593 107.48 78.5363 106.403C78.1609 105.927 77.6785 105.539 77.1254 105.269C76.5722 104.998 75.9627 104.853 75.3426 104.842H73.3466V96.5897L79.745 96.6646V93.2546L73.3466 93.3508V89.4813L80 88.7651V86.5844L73.3466 85.9003V81.9025H79.745V78.546L73.3466 78.6208V70.5503H75.3426C75.9889 70.5246 76.6216 70.363 77.1962 70.0768C77.7709 69.7906 78.2737 69.3867 78.6693 68.8934C79.5278 67.8464 79.9719 66.5392 79.9224 65.2056C79.9114 63.8116 79.4023 62.4638 78.4808 61.3894C78.1095 60.9094 77.628 60.5187 77.0739 60.248C76.5199 59.9772 75.9083 59.8337 75.2872 59.8288H73.2912V50.4114H79.6895V47.0335H73.2912L73.2912 37.8406H79.6895V34.3986H73.2912V23.5168L79.6895 23.1854V19.4013L73.2912 19.0806V8.92568H79.6895V0ZM70.3748 152.859V162.971H9.27453L9.27453 152.859H70.3748ZM75.2872 145.505C75.5243 145.509 75.7573 145.565 75.9686 145.668C76.18 145.772 76.3641 145.921 76.507 146.103C76.8376 146.488 77.0181 146.972 77.0171 147.471C77.0276 147.976 76.8462 148.466 76.507 148.85C76.3624 149.031 76.178 149.179 75.967 149.282C75.756 149.386 75.5238 149.443 75.2872 149.449H73.2912V145.505H75.2872ZM70.3748 145.505V149.449H9.27453L9.27453 145.505H70.3748ZM6.35813 145.505L6.35813 149.449H4.65043C4.41333 149.445 4.1803 149.389 3.96897 149.285C3.75765 149.182 3.57356 149.033 3.43064 148.85C3.10236 148.477 2.92167 148.004 2.92055 147.514C2.91169 147.013 3.09311 146.527 3.43064 146.146C3.57356 145.964 3.75765 145.815 3.96897 145.711C4.1803 145.607 4.41333 145.551 4.65043 145.547L6.35813 145.505ZM70.3748 133.618V142.073H9.27453L9.27453 133.618H70.3748ZM4.65043 130.229C4.41333 130.225 4.1803 130.169 3.96897 130.066C3.75765 129.962 3.57356 129.813 3.43064 129.631C3.0974 129.252 2.91639 128.77 2.92055 128.273C2.90961 127.772 3.09129 127.285 3.43064 126.905C3.5718 126.721 3.75552 126.571 3.96724 126.467C4.17896 126.363 4.41286 126.308 4.65043 126.306H6.35813L6.35813 130.251L4.65043 130.229ZM70.3748 115.606V130.229H9.27453L9.27453 115.606L70.3748 115.606ZM75.2872 108.252C75.5238 108.258 75.756 108.315 75.967 108.419C76.178 108.522 76.3624 108.67 76.507 108.851C76.84 109.238 77.0207 109.726 77.0171 110.229C77.0212 110.728 76.8447 111.212 76.5181 111.598C76.3751 111.78 76.1911 111.929 75.9797 112.033C75.7684 112.136 75.5354 112.192 75.2983 112.196H73.3023V108.252H75.2872ZM70.3748 108.252V112.239L9.27453 112.239V108.295L70.3748 108.252ZM6.35813 108.252V112.239H4.65043C4.41302 112.237 4.17941 112.181 3.96783 112.077C3.75624 111.974 3.5724 111.824 3.43064 111.64C3.09129 111.261 2.90961 110.773 2.92055 110.272C2.91102 109.768 3.09236 109.278 3.43064 108.893C3.57356 108.711 3.75765 108.562 3.96897 108.458C4.1803 108.355 4.41333 108.299 4.65043 108.295L6.35813 108.252ZM9.4076 95.8522L70.3969 96.5577V104.842L9.27453 104.842V95.8522H9.4076ZM70.3969 93.3829H70.2639L34.7792 93.8853V93.6181L70.3748 89.7913L70.3969 93.3829ZM62.4794 87.4717V87.7389L9.25235 92.4422L9.25235 82.8218H9.39651L62.4794 87.4717ZM70.3969 81.8811V85.5155H70.2417L36.9748 81.8383V81.5711L70.3969 81.8811ZM70.3969 70.5503V78.6529L9.29671 79.3584L9.29671 70.5503L70.3969 70.5503ZM75.3094 63.1959C75.546 63.2023 75.7782 63.2593 75.9892 63.3629C76.2001 63.4664 76.3846 63.6139 76.5292 63.7946C76.8617 64.1934 77.0349 64.6941 77.0171 65.2056C77.0135 65.6928 76.8375 66.1642 76.5181 66.5417C76.3751 66.7242 76.1911 66.8728 75.9797 66.9765C75.7684 67.0803 75.5354 67.1363 75.2983 67.1404H73.3023V63.1959H75.3094ZM70.3969 63.1959V67.1404L9.27453 67.1404V63.1959L70.3969 63.1959ZM6.38031 63.1959L6.38031 67.1404H4.65043C4.41333 67.1363 4.1803 67.0803 3.96897 66.9765C3.75765 66.8728 3.57356 66.7242 3.43064 66.5417C3.09582 66.1568 2.91231 65.6705 2.91231 65.1681C2.91231 64.6658 3.09582 64.1795 3.43064 63.7946C3.57356 63.6121 3.75765 63.4635 3.96897 63.3597C4.1803 63.256 4.41333 63.2 4.65043 63.1959H6.38031ZM70.3969 50.3686V59.7433L9.27453 59.7433V50.4114L70.3969 50.3686ZM70.3969 37.7658L70.3969 47.0335L9.27453 47.0335L9.27453 37.8406L70.3969 37.7658ZM70.3969 34.3558L9.27453 34.3558L9.27453 26.7236H9.4076L70.3969 23.6343V34.3558ZM9.4076 19.3906L54.4621 21.1437V21.3789L9.27453 23.2602V19.4013L9.4076 19.3906ZM70.3969 18.931H70.2528L9.26344 15.9059V8.92568L70.3637 8.92568L70.3969 18.931Z" />
<path d="M79.6895 93.276L0.248108 93.276L0.248108 96.6859L79.6895 96.6859V93.276Z" />
<path d="M79.6895 78.5246L0.248108 78.5246L0.248108 81.9345L79.6895 81.9345V78.5246Z" />
</symbol><symbol viewBox="0 0 200 65" id="partner-muzli">
<g clip-path="url(#partner-muzli_clip0)">
<path d="M199.469 47.2623C199.294 47.2623 199.121 47.0836 198.768 47.0836C198.768 47.0836 198.418 47.0836 198.243 47.6178C198.243 47.7965 197.72 48.6872 197.018 50.1121C197.018 50.1121 197.018 50.2908 196.841 50.2908C195.265 53.1406 192.285 57.4163 188.429 57.2376H188.254C187.553 57.0607 187.029 56.5256 187.029 55.6358C187.204 54.5647 187.378 53.3202 187.905 52.2508C190.708 47.4392 193.689 42.631 196.492 37.8203C197.367 36.2167 198.069 34.614 198.769 32.8326C199.121 31.7641 198.419 30.5187 197.194 29.9836C194.913 29.2681 192.985 29.6245 191.761 31.2281C190.184 33.3677 188.782 36.574 187.379 38.8896C185.979 41.207 184.925 43.5208 183.35 45.6587C181.245 48.5085 178.968 51.3592 176.514 54.0304C175.286 55.2802 173.711 56.3478 172.132 57.2385C170.73 57.9505 169.154 56.5265 168.803 54.3886C168.452 52.0713 168.627 49.9343 169.328 47.7982C169.677 46.9076 170.028 46.016 170.905 45.304C171.432 44.9484 172.483 44.2329 173.008 43.879C178.967 39.0692 183.698 33.3695 187.727 26.9551C191.057 21.7914 193.864 16.6215 195.616 10.5654C196.139 8.42755 196.666 6.28884 196.139 3.97323C195.616 1.12426 194.211 -0.303309 191.056 0.0540228C188.779 0.234449 187.028 1.47983 185.276 2.90299C181.945 5.75636 179.141 9.14045 176.861 12.7023C174.058 16.9771 171.605 21.4305 169.152 25.8866C166.698 30.5196 164.597 35.3286 162.845 40.4941C162.669 41.0283 162.491 41.7403 162.318 42.2728C162.318 42.4532 162.143 42.6319 162.143 42.8071C161.792 43.5208 160.565 45.8373 159.163 47.7974C158.814 48.3316 158.463 48.8685 158.111 49.401C157.588 50.113 157.062 50.8241 156.361 51.5379C155.308 52.7859 154.259 53.8535 152.853 54.7442C151.627 55.6367 150.403 56.1709 149 56.3478H148.298C147.771 56.3478 147.422 56.3478 146.897 56.1709C146.37 56.1709 145.844 55.9922 145.319 55.8136C143.742 55.458 142.165 54.9229 140.413 54.5655C139.009 54.2117 138.134 54.2117 136.908 54.2117H135.506C134.279 54.2117 133.053 54.5655 131.651 55.2776C147.247 36.7535 155.133 36.7535 156.009 35.8611C157.588 35.5038 158.287 35.3286 158.814 34.7917C159.514 34.2593 159.865 33.3686 160.038 32.6548C160.215 30.5152 159.162 29.2689 157.936 29.092H157.411H157.235C156.009 29.092 154.608 29.6254 154.081 29.8058C150.925 30.1605 148.298 30.1605 146.37 30.1605C142.514 30.1605 140.586 29.8058 138.486 29.8058C137.258 29.8058 136.207 29.8058 134.803 30.1605C134.63 30.1605 134.455 30.3392 134.104 30.3392C134.104 30.3392 129.02 30.8743 126.744 37.1091L126.568 37.286C126.568 37.4647 124.115 42.4532 123.239 43.8782C121.311 47.2631 119.385 49.9343 117.807 51.7166C115.53 54.2108 112.723 56.5265 110.096 56.5265C109.747 56.5265 109.394 56.5265 109.045 56.3478C108.87 56.3478 108.519 56.1709 108.343 56.1709C107.466 55.8136 107.641 54.0304 107.819 53.4979C107.993 52.7859 108.167 52.0713 108.519 51.3575C110.798 47.0845 113.25 42.9875 115.53 38.7109C116.754 36.574 117.98 34.4362 119.032 32.1197C119.385 31.2281 119.032 29.9818 118.158 29.6254C116.23 28.5552 112.901 28.5552 111.497 30.3392C110.447 31.7659 109.57 33.1881 108.695 34.7926C105.366 40.3137 102.21 45.8391 98.1797 51.0046C96.6022 52.9646 95.0265 54.7451 92.7477 55.6375C91.6949 55.9931 90.6456 56.1718 89.5928 55.4589C88.5417 54.7451 88.3651 53.8553 88.5417 52.7877C88.7175 51.7183 89.0672 50.6472 89.417 49.5814C90.9945 45.3049 93.6222 41.5643 96.0767 37.822C96.9529 36.3971 98.0048 34.9722 98.8801 33.5472C99.932 31.7667 99.4056 29.8076 97.6541 29.0938C97.3044 28.9151 96.952 28.9151 96.6022 28.9151C94.5001 28.38 92.5728 28.7365 91.5209 30.6965C89.9426 33.189 88.3651 35.6833 86.7894 38.3545C85.3876 40.495 84.3366 42.9892 82.934 44.9484C80.831 47.7983 78.5522 50.6472 76.0986 53.3202C74.5211 55.2784 72.5947 56.8838 70.3151 57.9514C69.264 58.4874 68.2138 59.0225 67.161 58.1318C66.1091 57.418 66.1091 56.1718 66.2857 55.1033C66.8113 52.7877 66.9853 50.4703 67.8615 48.3342C69.9653 42.9901 72.419 37.8229 74.6969 32.4761C76.0986 29.0938 77.6769 25.708 78.902 22.147C79.7773 19.6527 79.2544 16.9789 77.4994 14.8437C75.5713 12.8827 73.1185 12.5272 70.1411 13.2401C66.1091 14.3086 62.4295 16.4455 59.2746 19.1176C58.749 19.6527 58.0486 20.0083 57.5231 20.5416C57.5231 20.0083 57.6988 19.6527 57.6988 19.2954C58.575 16.4446 59.6269 13.7726 58.3992 10.5671C57.8737 9.14045 57.1733 7.89419 55.7716 7.00438C52.7915 5.40079 49.9881 5.75548 47.3587 6.46927C42.9769 7.7164 39.4739 10.3893 36.3181 13.417C35.442 14.3086 34.39 15.1984 33.5139 16.2677C33.8654 14.3086 34.39 12.5272 34.39 10.5671C34.39 5.75548 31.5857 2.72785 26.8551 1.12514C23.1755 0.054903 19.4959 0.235329 15.8145 0.944711C12.1349 1.65849 8.62933 2.90387 5.47612 5.04434C3.37225 6.46839 1.44414 8.07374 0.3948 10.7423C-0.1316 12.1698 -0.1316 13.7717 0.3948 15.3753C1.09436 17.3344 3.19823 18.4029 5.30036 16.8011C7.75401 15.1966 9.85788 13.2383 12.3115 11.4561C15.9911 8.60709 19.6707 6.11369 24.578 5.7546C26.1564 5.57594 27.5572 6.28972 28.0836 7.89331C28.2568 8.60709 28.4334 9.67381 28.0836 10.3876C27.5572 12.169 27.0308 13.9521 26.1555 15.5539C23.875 19.6518 21.424 23.571 18.7946 27.6671C15.4639 32.8343 11.7851 38.0007 8.45617 43.1661C6.00252 46.9084 3.72463 50.8259 1.62076 54.5664C0.568824 56.3487 -0.1316 58.3087 0.218179 60.4474C0.567958 63.4759 4.60081 65.0769 6.52805 64.188C8.45617 63.2955 9.50724 61.6937 10.5574 60.0936C12.4856 56.7034 14.4128 53.321 16.34 49.9361C21.2473 40.8496 26.681 32.1214 32.9883 24.1061C36.1433 20.0083 39.6471 16.2668 43.854 13.2392C45.7821 11.9921 47.7093 10.9236 50.1621 10.7432C51.04 10.5671 51.7396 11.1005 51.9153 11.9929C52.0902 13.0588 52.4409 14.3077 52.0902 15.3761C51.3898 17.6918 50.5145 20.0083 49.2859 22.147C44.905 29.8076 40.3484 37.4664 35.9684 45.1262C34.0403 48.3342 32.2888 51.8952 30.7113 55.2784C29.8351 57.0625 30.7113 59.5567 32.6394 60.4474C34.7424 61.5168 37.1969 61.5168 38.2463 59.3781C42.1016 51.7183 46.1327 44.0586 50.163 36.5758C53.3188 30.517 57.5239 25.1737 63.3074 21.2545C65.4104 19.8278 67.5125 18.762 70.1428 18.2269C71.5445 17.8678 72.5947 18.5816 72.4207 20.0074C72.4207 20.8972 72.2441 21.787 71.7186 22.5008C69.9662 25.8875 68.0381 29.0929 66.2875 32.4752C63.3083 37.6433 60.1542 42.8088 58.5759 48.8694C57.8746 51.5388 57.3482 54.3886 58.4001 57.418C60.3274 62.7622 65.9351 66.6814 71.7186 63.8315C74.8735 62.2279 77.1505 59.9123 79.2552 57.2394C79.7782 56.5273 80.4812 55.8144 81.0067 55.1024C81.0067 55.6367 81.1834 55.8144 81.1834 55.9931C81.7063 58.3087 82.4093 60.4474 84.6872 61.8706C88.0162 63.8324 91.172 63.2955 93.9754 61.3364C97.1295 59.1994 99.0567 56.1727 100.985 53.1433C101.511 52.2526 102.212 51.1832 102.737 50.1147C102.737 50.1147 102.913 50.1147 102.913 50.2934C102.913 50.4703 102.737 50.8259 102.737 51.0054C102.387 52.609 101.687 54.3904 101.687 55.994C101.511 58.4883 102.564 60.9825 105.192 62.0501C106.944 62.7639 108.696 62.4075 110.449 61.5159C113.252 60.091 116.757 58.1309 118.509 55.6384C118.862 55.2793 119.035 54.7442 119.388 54.3904C121.489 52.4304 124.818 47.4409 126.746 44.7706C128.675 42.2746 129.902 39.2478 132.355 37.1109C133.232 36.7553 133.932 36.3971 135.333 36.0415C137.261 35.8629 140.59 35.8629 146.725 36.7553C145.147 37.8229 144.445 38.7136 142.342 39.9616C139.713 41.7421 136.034 43.7021 133.055 45.8408C128.849 49.0471 126.046 52.6099 122.89 57.4198C122.716 57.5985 122.716 58.1318 122.54 58.8447V60.8048V60.9834C122.54 62.051 123.417 63.1204 124.645 63.1204H124.818H124.994C125.345 63.1204 125.694 62.9435 126.046 62.9435C126.22 62.7648 126.571 62.5844 126.746 62.4092C127.273 62.0519 127.622 61.8732 128.148 61.6954C128.85 61.3381 129.727 61.1612 130.603 61.1612C132.179 61.1612 133.757 61.3381 135.51 61.6954C135.859 61.6954 136.21 61.8724 136.561 61.8724C138.138 62.2297 138.662 62.5844 140.241 62.9435C141.818 63.2973 143.395 63.4759 144.796 63.4759H146.374C148.301 63.2973 150.229 62.5835 152.157 61.5159C153.91 60.2696 155.664 58.8447 157.239 57.0633C158.466 55.8153 159.342 54.5673 160.395 53.1441C160.395 53.321 160.568 53.4997 160.568 53.8562C160.568 54.7451 160.568 55.6384 160.746 56.3504V56.5291C161.094 58.3096 161.795 60.091 163.198 61.5159C165.825 64.0102 168.806 64.3675 171.787 63.2964C174.589 62.4075 176.692 60.4483 178.62 58.4883C178.971 58.1309 179.145 57.9523 179.671 57.4189C179.846 57.9514 180.021 58.3096 180.021 58.6634C180.372 60.2688 181.248 61.515 182.474 62.4075C182.65 62.5826 183 62.763 183.176 62.763L183.353 62.9417C183.702 63.1186 184.053 63.2955 184.402 63.4742C186.506 64.3666 188.432 64.0084 190.011 63.1186C190.887 62.763 191.585 62.2279 192.466 61.515C194.041 60.2688 195.093 58.8438 196.144 57.2402C196.844 55.994 197.547 54.9246 198.073 53.6784C198.597 52.609 199.473 50.2934 200 48.1538C199.645 47.976 199.82 47.44 199.469 47.2623ZM172.658 35.1491L181.77 17.69C183.521 14.6606 185.625 11.8116 187.727 8.96178C188.253 8.24888 188.955 7.35907 190.008 7.18129C190.708 7.00262 191.057 7.18129 191.057 7.89331C190.883 8.96266 190.708 10.2089 190.357 11.2792C188.78 15.9113 186.326 20.186 183.698 24.2813C181.069 28.3791 178.09 32.2983 174.761 35.8637C173.36 37.2887 171.784 38.5349 170.379 39.9598C171.257 38.1776 171.783 36.574 172.658 35.1491Z" />
</g>
<defs>

</defs>
</symbol><clipPath id="partner-muzli_clip0">
<rect width="200" height="64.7887" fill="white" />
</clipPath><symbol viewBox="0 0 200 39" id="partner-qwilr">
<g clip-path="url(#partner-qwilr_clip0)">
<path d="M52.3254 18.6283C52.3254 9.96721 58.2013 3.46289 66.8391 3.46289C75.4769 3.46289 81.3952 9.97146 81.3952 18.6283C81.3952 22.9801 79.9061 26.7619 77.3606 29.4887L80.1225 32.4324L77.6321 34.6317L74.7811 31.5986C72.3998 33.0788 69.6447 33.8422 66.8434 33.7979C58.2013 33.7979 52.3254 27.2894 52.3254 18.6283ZM72.4053 29.0505L68.2434 24.503L70.7889 22.3505L74.9084 26.8342C76.7289 24.4935 77.6906 21.596 77.6321 18.6283C77.6321 11.7709 73.3896 6.71718 66.8476 6.71718C60.3056 6.71718 56.1055 11.7709 56.1055 18.6283C56.1055 25.4857 60.2717 30.5394 66.8476 30.5394C68.8019 30.5682 70.7258 30.0528 72.4053 29.0505Z" />
<path d="M113.355 33.4772L106.937 10.1941L100.539 33.473H96.6226L88.3721 4.61719H92.3773L98.8168 28.6749L105.475 4.61719H108.478L115.137 28.6749L121.534 4.61719H125.581L117.272 33.4772H113.355Z" />
<path d="M136.047 33.4772V4.61719H139.535V33.4772H136.047Z" />
<path d="M151.163 33.4605V4.61719H154.851V30.2761H168.605V33.4772H151.163V33.4605Z" />
<path d="M195.768 33.4772L188.459 22.0094H182.661V33.4772H179.07V4.61719H190.665C195.944 4.61719 199.749 7.9918 199.749 13.3133C199.749 18.505 196.157 21.3604 192.214 21.687L200 33.4563H195.768V33.4772ZM196.028 13.3133C196.028 10.0266 193.65 7.82014 190.23 7.82014H182.661V18.8525H190.234C193.65 18.8525 196.028 16.5581 196.028 13.3133Z" />
<path d="M5.02863 38.0954L17.4419 18.0399L11.9372 9.23535L0 29.5934L5.02863 38.0954Z" />
<path d="M29.5636 38.0954L34.8838 29.5985L22.9085 9.23535L17.4419 18.0044L29.5636 38.0954Z" />
<path d="M17.4039 18.4704L23.2558 9.6342L17.4743 0L11.6279 9.55894L17.4039 18.4704Z" />
</g>
<defs>

</defs>
</symbol><clipPath id="partner-qwilr_clip0">
<rect width="200" height="38.0952" fill="white" />
</clipPath><symbol viewBox="0 0 200 28" id="partner-stickermule">
<path d="M39.661 25.4291C36.8162 25.4291 34.2475 25.1248 31.9587 22.8935L34.9067 20.021C36.3995 21.4729 38.3438 21.6766 39.7307 21.6766C41.2918 21.6766 42.9226 21.17 42.9226 19.8513C42.9226 18.9726 42.4362 18.3629 41.0144 18.2284L38.1683 17.9672C34.9067 17.6669 32.8954 16.283 32.8954 13.0319C32.8954 9.3891 36.1918 7.41756 39.8634 7.41756C42.6774 7.41756 45.0358 7.90066 46.7644 9.4805L43.9906 12.2224C42.9454 11.3084 41.3508 11.0473 39.783 11.0473C37.974 11.0473 37.2102 11.8568 37.2102 12.7446C37.2102 13.3975 37.4782 14.1417 39.0862 14.2722L41.927 14.5464C45.5048 14.8859 47.3004 16.753 47.3004 19.7168C47.3004 23.6077 43.8968 25.4617 39.6222 25.4617L39.661 25.4291ZM55.205 25.2254C51.5254 25.2254 49.9656 22.6924 49.9656 20.1895V11.4677H48.0561V8.12131H49.9643V2.91175H54.4747V8.12131H57.6666V11.4664H54.4747V19.9192C54.4747 20.9337 54.9611 21.5082 56.0358 21.5082H57.6666V25.2267H55.2037L55.205 25.2254ZM59.6699 4.60257V1.01855H64.2862V4.60257H59.6699ZM59.7409 25.2267V7.61211H64.2513V25.2254H59.7355L59.7409 25.2267ZM74.4447 25.4356C70.8361 25.4356 66.3605 23.5424 66.3605 16.4135C66.3605 9.28465 70.8361 7.41756 74.4447 7.41756C76.9424 7.41756 78.8157 8.16179 80.413 9.79385L77.3605 12.7707C76.4225 11.7915 75.6252 11.3868 74.446 11.3868C73.37 11.3868 72.5379 11.7654 71.8786 12.5357C71.1952 13.3844 70.8736 14.5725 70.8736 16.4266C70.8736 18.2806 71.1952 19.5079 71.8786 20.3566C72.5486 21.14 73.3794 21.5056 74.4514 21.5056C75.6306 21.5056 76.4346 21.1008 77.3726 20.1216L80.4278 23.0593C78.8332 24.6783 76.9572 25.4617 74.4648 25.4617L74.4447 25.4356ZM92.8562 25.2397L88.4168 17.915L86.51 20.0041V25.2528H81.9942V1.16218H86.51V14.8193L92.5132 7.61602H97.9576L91.5042 14.7188L98.4454 25.2424H92.8576L92.8562 25.2397ZM102.209 17.8106C102.209 20.0824 103.63 21.7406 106.166 21.7406C108.136 21.7406 109.114 21.2053 110.253 20.0824L112.987 22.6937C111.138 24.4825 109.369 25.4748 106.113 25.4748C101.838 25.4748 97.7512 23.5816 97.7512 16.4527C97.7512 10.7078 100.94 7.45673 105.617 7.45673C110.642 7.45673 113.483 11.0473 113.483 15.8782V17.8497H102.188L102.209 17.8106ZM108.663 12.9144C108.178 11.8698 107.171 11.0865 105.645 11.0865C104.118 11.0865 103.113 11.8698 102.626 12.9144C102.349 13.5672 102.244 14.0372 102.211 14.8076H109.078C109.045 14.0372 108.942 13.5672 108.663 12.9144ZM125.484 12.4443C124.79 11.7784 124.2 11.3998 123.091 11.3998C121.697 11.3998 120.169 12.4182 120.169 14.6509V25.2659H115.654V7.61211H120.062V9.30293C120.92 8.28844 122.662 7.40973 124.605 7.40973C126.374 7.40973 127.62 7.84843 128.866 9.06791L125.462 12.413L125.484 12.4443Z" />
<path d="M148.898 7.31999C146.655 7.31999 145.033 8.00116 143.514 9.56863C142.376 8.03535 140.756 7.31999 138.753 7.31999C137.097 7.31999 135.44 7.96697 134.268 9.15835V7.52382H129.897V25.263H134.388V14.538C134.388 12.1184 135.973 11.3031 137.386 11.3031C138.812 11.3031 140.357 12.1184 140.357 14.538V25.263H144.848V14.4354C144.848 12.121 146.474 11.3031 147.846 11.3031C149.259 11.3031 150.818 12.1184 150.818 14.538V25.263H155.308V13.9252C155.308 11.9843 154.789 10.3155 153.336 8.88615C152.337 7.8999 150.724 7.32131 148.926 7.32131L148.898 7.31999ZM168.392 18.2502C168.392 20.6672 166.807 21.4851 165.392 21.4851C163.979 21.4851 162.424 20.6672 162.424 18.2502V7.52382H157.947V18.863C157.947 20.8026 158.333 22.4713 159.772 23.902C160.772 24.8883 162.224 25.4669 164.023 25.4669C165.689 25.4669 167.341 24.8554 168.514 23.6298V25.2644H172.898V7.52382H168.42V18.2502H168.392ZM180.22 19.9202V1.01855H175.735V20.1872C175.735 22.708 177.287 25.263 180.978 25.263H183.531V21.5153H181.812C180.68 21.5153 180.227 20.9722 180.227 19.9176L180.22 19.9202ZM200 15.7951C200 10.9257 197.171 7.31736 192.167 7.31736C187.509 7.31736 184.335 10.5864 184.335 16.375C184.335 23.568 188.406 25.4748 192.65 25.4748C195.893 25.4748 197.653 24.4885 199.482 22.687L196.763 20.0701C195.631 21.201 194.658 21.7402 192.699 21.7402C190.181 21.7402 188.768 20.0701 188.768 17.7952H200V15.8096V15.7951ZM188.754 14.7392C188.787 13.9541 188.889 13.4768 189.167 12.8324C189.649 11.7739 190.65 10.9914 192.167 10.9914C193.687 10.9914 194.686 11.7739 195.168 12.8324C195.445 13.4768 195.548 13.9528 195.581 14.7392H188.752H188.754Z" />
<path d="M18.2884 27.4024C18.03 27.5266 17.6789 27.4985 17.3172 27.5092C17.0058 27.5186 16.5686 27.5252 16.3871 27.3624C16.2877 27.2756 16.2599 27.086 16.2546 26.9752C16.2453 26.8416 16.2784 26.6814 16.3076 26.5319C16.3394 26.3583 16.3738 26.1313 16.3076 26.0379C16.2281 25.9244 15.9498 25.9711 15.8014 25.8883C15.6451 25.8002 15.6001 25.5892 15.5497 25.3543C15.5325 25.2781 15.4888 25.2101 15.4835 25.1513C15.4384 24.7908 15.559 24.3048 15.6425 23.9323C15.7299 23.5384 15.8438 23.1712 15.9074 22.8067C16.0055 22.2553 16.0399 21.6318 16.0002 21.0643C15.983 20.7706 15.9432 20.5356 15.9869 20.2899C16.0307 20.0563 16.1274 19.8627 16.1724 19.6317C16.1883 19.5583 16.1764 19.4715 16.1857 19.3914C16.1963 19.3193 16.2387 19.2619 16.2387 19.2044C16.248 19.0496 16.1989 18.86 16.1857 18.6677C16.1552 18.151 16.195 17.422 16.2281 16.98C16.2387 16.8252 16.3102 16.6489 16.2016 16.5795C15.6676 16.5701 15.1814 16.673 14.6845 16.7397C13.3463 16.9133 11.6663 16.9346 10.3785 16.673C10.2552 16.6462 10.132 16.6462 10.0181 16.6195C9.10386 16.4059 8.26119 16.012 7.61065 15.494C7.5179 15.4139 7.39866 15.3284 7.27941 15.2403C7.17342 15.1522 7.05417 15.0334 6.94818 14.984C6.43145 14.7396 5.74248 15.0213 5.53049 15.3578C5.45099 15.494 5.38474 15.6676 5.30525 15.8278C5.22575 15.9813 5.1595 16.1429 5.09326 16.2951C4.74877 17.0882 4.36454 17.8439 4.02005 18.641C3.82131 19.1003 3.59607 19.6117 3.45033 20.1284C3.13234 21.2232 3.43708 22.6892 3.67557 23.72C3.70207 23.8135 3.75506 23.9069 3.78156 24.0137C3.86106 24.2621 4.0333 24.5932 4.21879 24.7614C4.32479 24.8509 4.49703 24.9043 4.60303 25.0044C4.74877 25.1273 4.85477 25.3716 4.96076 25.5786C5.01376 25.6667 5.08001 25.7655 5.133 25.8723C5.2655 26.1046 5.3185 26.3129 5.05351 26.4504C4.86802 26.5572 4.57653 26.584 4.29829 26.5973C4.17905 26.6374 4.21879 26.7976 4.1393 26.891C4.09955 26.9444 3.91406 27.0112 3.82131 27.0379C3.46358 27.1447 2.86735 27.1447 2.58911 27.0379C2.45662 26.9979 2.29763 26.891 2.25788 26.7709C2.19163 26.5572 2.36387 26.2769 2.20488 26.1033C2.13863 26.0365 1.99289 26.0499 1.8604 25.9831C1.6749 25.903 1.50266 25.7294 1.40992 25.5025C1.19792 24.9684 1.33042 24.1139 1.30392 23.4596C1.30392 23.2727 1.27742 23.0591 1.26417 22.8455C1.25092 22.4583 1.15818 22.0711 1.11843 21.6839C1.10518 21.4969 1.03893 21.3367 0.999183 21.1631C0.946185 20.8961 0.893188 20.589 0.813691 20.3086C0.734194 20.0015 0.720945 19.7078 0.82694 19.4408C0.853439 19.374 0.932936 19.3072 0.972684 19.2004C1.03893 19.0536 1.06543 18.8666 1.05218 18.7331C1.01243 18.6664 0.82694 18.7198 0.773943 18.6397C0.667947 17.7985 0.535453 16.944 0.469206 16.0628C0.442707 15.769 0.442707 15.4619 0.416208 15.1549C0.36321 14.554 0.402959 13.9265 0.349961 13.3524C0.323462 13.072 0.257215 12.805 0.217467 12.5246C0.110146 11.7221 -0.101845 10.7207 0.0571486 9.91964C0.163144 9.39892 0.345986 8.97434 0.640123 8.59114C0.852114 8.32411 1.07735 8.07043 1.31584 7.83009C1.55433 7.60311 1.81932 7.37613 2.09756 7.17586C2.28305 7.04234 2.46854 6.89013 2.66729 6.79667C3.11777 6.58304 3.70074 6.40947 4.31022 6.38277C4.91969 6.35606 5.61926 6.34271 6.22741 6.46288C6.81038 6.56969 7.38806 6.66315 7.95778 6.78332C8.51426 6.89013 9.06543 7.05035 9.59409 7.18387C9.66033 7.19722 9.72128 7.23728 9.79283 7.26398C9.9611 7.30404 10.1506 7.31739 10.3361 7.37079C10.8263 7.50431 11.4755 7.57107 12.0823 7.57107C12.7382 7.57107 13.3278 7.55772 13.867 7.4242C13.9465 7.3975 13.9995 7.35744 14.0923 7.33074C14.1718 7.29068 14.2778 7.30403 14.3573 7.27733C14.4103 7.25063 14.4633 7.19722 14.5295 7.17052C14.8342 7.02365 15.0992 6.86343 15.3775 6.6765C15.5921 6.51628 15.7749 6.38277 16.0664 6.27595C16.1989 6.2359 16.3248 6.15579 16.4507 6.11573C16.7289 6.03562 17.0257 5.95551 17.2364 5.80864C17.5676 5.59501 17.8154 5.28792 18.0909 5.04759C18.3824 4.79391 18.6739 4.55358 18.9654 4.31324C19.5881 3.83258 20.1976 3.37862 20.7806 2.91131C21.0721 2.67098 21.4033 2.45735 21.7478 2.25708C22.4235 1.86988 23.0992 1.41592 24.0664 1.34916C24.4507 1.32246 24.8482 1.3091 25.2324 1.36251C25.3384 1.37586 25.4841 1.44262 25.5769 1.41592C25.6829 1.38921 25.7624 1.22899 25.8286 1.10883C25.9744 0.855144 26.0804 0.681572 26.1996 0.374482C26.2791 0.187557 26.2393 -0.0127188 26.4381 0.000632968C26.6368 0.0139847 26.5971 0.521351 26.6103 0.708275C26.6236 0.948606 26.5838 1.2557 26.6236 1.41592C26.6501 1.53608 26.7958 1.6963 26.9548 1.6963C27.0608 1.6963 27.1403 1.61619 27.2331 1.54943C27.339 1.49603 27.4318 1.45597 27.498 1.40257C27.657 1.2824 27.8425 1.09548 28.0015 0.921903C28.134 0.788386 28.346 0.467944 28.5712 0.494647C28.9555 0.534703 28.5712 1.10883 28.4917 1.2824C28.293 1.72301 28.1075 2.0568 27.8823 2.47071C27.7895 2.63093 27.5775 2.87126 27.5775 3.04483C27.5775 3.165 27.6835 3.24511 27.7365 3.37862C27.763 3.43871 27.7763 3.49879 27.8028 3.56555C27.9353 3.87264 28.0413 4.29989 28.134 4.64704C28.2268 4.94879 28.293 5.26122 28.4123 5.55496C28.5182 5.8487 28.6772 6.11573 28.7832 6.40413C28.823 6.48424 28.823 6.57369 28.8495 6.64446C29.1012 7.27199 29.3265 7.98898 29.6179 8.59381C29.7372 8.84082 29.9094 9.14123 29.8962 9.50841C29.8962 9.90896 29.6974 10.0959 29.512 10.3896C29.4192 10.5498 29.2867 10.7862 29.141 10.8302C29.035 10.8703 28.9157 10.8302 28.8097 10.8436C28.664 10.8703 28.558 10.9637 28.4255 10.9771C28.0678 11.0172 27.7498 10.7368 27.6438 10.4697C27.6173 10.3763 27.6305 10.2561 27.604 10.1493C27.5245 9.71269 27.3125 9.50307 27.0078 9.22802C26.8223 9.04644 26.6633 8.90758 26.4248 8.78207C26.0804 8.60583 25.7094 8.49635 25.3516 8.30141C25.2191 8.22931 25.0562 8.15855 24.9409 8.18124C24.7514 8.21729 24.5567 8.5324 24.4109 8.72867C23.4782 9.97572 22.6487 11.2562 21.7292 12.4805C21.1198 13.291 20.4705 14.1134 19.9869 15.04C19.8677 15.2777 19.7882 15.5474 19.6955 15.8144C19.6027 16.0815 19.5497 16.3752 19.457 16.6689C19.0992 17.6837 18.9932 18.9254 18.6752 19.9935C18.6355 20.1003 18.6222 20.2339 18.5957 20.354C18.45 20.9014 18.291 21.5156 18.132 22.1031C17.9995 22.5304 17.9598 23.1178 17.9373 23.6853C17.924 24.2154 17.8975 24.9711 18.083 25.3075C18.189 25.4811 18.5467 25.5479 18.6885 25.7348C18.7812 25.8616 18.8475 26.114 18.9402 26.2822C19.0065 26.4024 19.192 26.6494 19.1787 26.8296C19.1655 26.9671 19.0595 27.0633 18.9535 27.11C18.8475 27.1674 18.6752 27.1367 18.5693 27.1901C18.45 27.2569 18.503 27.4037 18.3838 27.4839L18.2884 27.4024Z" />
</symbol><symbol id="pin" viewBox="0 0 16 20">
<path d="M8,11.4c-1.9,0-3.5-1.6-3.5-3.5S6.1,4.4,8,4.4s3.5,1.6,3.5,3.5S9.9,11.4,8,11.4z M8,5.9c-1.1,0-2,0.9-2,2s0.9,2,2,2
	c1.1,0,2-0.9,2-2S9.1,5.9,8,5.9z" />
<path d="M8,19.7c-0.2,0-0.3,0-0.4-0.1c-0.3-0.2-7.2-5.1-7.2-11.6c0-2,0.8-4,2.2-5.4C4,1.1,6,0.3,8,0.3s4,0.8,5.4,2.2
	c1.4,1.4,2.2,3.4,2.2,5.4c0,6.5-6.9,11.4-7.2,11.6C8.3,19.6,8.2,19.7,8,19.7z M8,1.8c-1.6,0-3.2,0.6-4.3,1.8S1.9,6.3,1.9,7.9
	c0,4.8,4.7,8.9,6.1,10.1c1.5-1.2,6.1-5.2,6.1-10.1c0-1.6-0.6-3.2-1.8-4.3C11.2,2.4,9.6,1.8,8,1.8z" />
</symbol><symbol id="replay" viewBox="0 0 11 10">
<path d="M7.9,0.9L1.4,4.7v-4H0.5v9.2h0.9v-4l6.5,3.8l0.7-0.4v-8L7.9,0.9z M7.7,8.5L2.2,5.3l5.5-3.2V8.5z" />
</symbol><symbol id="social-facebook" viewBox="0 0 32 32"><title>social-facebook</title><path d="M23.38,10.41h-5V7.11a1.34,1.34,0,0,1,1.4-1.53H23.3V.14l-4.89,0c-5.42,0-6.65,4.06-6.65,6.66v3.63H8.62V16h3.14V31.88h6.59V16H22.8Z" /></symbol><symbol id="social-instagram" viewBox="0 0 503.84 503.84"><title>instagram</title><path d="M251.92,45.39c67.27,0,75.23.26,101.8,1.47,24.56,1.12,37.9,5.22,46.78,8.67a78,78,0,0,1,29,18.85,78,78,0,0,1,18.85,29c3.45,8.88,7.55,22.22,8.67,46.78,1.21,26.57,1.47,34.53,1.47,101.8s-.26,75.23-1.47,101.8c-1.12,24.56-5.22,37.9-8.67,46.78a83.51,83.51,0,0,1-47.81,47.81c-8.88,3.45-22.22,7.55-46.78,8.67-26.56,1.21-34.53,1.47-101.8,1.47s-75.24-.26-101.8-1.47c-24.56-1.12-37.9-5.22-46.78-8.67a78,78,0,0,1-29-18.85,78,78,0,0,1-18.85-29c-3.45-8.88-7.55-22.22-8.67-46.78-1.21-26.57-1.47-34.53-1.47-101.8s.26-75.23,1.47-101.8c1.12-24.56,5.22-37.9,8.67-46.78a78,78,0,0,1,18.85-29,78,78,0,0,1,29-18.85c8.88-3.45,22.22-7.55,46.78-8.67,26.57-1.21,34.53-1.47,101.8-1.47m0-45.39c-68.42,0-77,.29-103.87,1.52S102.93,7,86.9,13.23A123.52,123.52,0,0,0,42.28,42.28a123.52,123.52,0,0,0-29,44.62C7,102.93,2.74,121.24,1.52,148.05S0,183.5,0,251.92s.29,77,1.52,103.87S7,400.91,13.23,416.94a123.52,123.52,0,0,0,29.05,44.62A123.68,123.68,0,0,0,86.9,490.62c16,6.22,34.34,10.48,61.15,11.71s35.45,1.51,103.87,1.51,77-.29,103.87-1.51,45.12-5.49,61.15-11.71a128.85,128.85,0,0,0,73.68-73.68c6.22-16,10.48-34.34,11.71-61.15s1.51-35.45,1.51-103.87-.29-77-1.51-103.87-5.49-45.12-11.71-61.15a123.68,123.68,0,0,0-29.06-44.62,123.52,123.52,0,0,0-44.62-29C400.91,7,382.6,2.74,355.79,1.52S320.34,0,251.92,0Z" /><path d="M251.92,122.56A129.37,129.37,0,1,0,381.29,251.92,129.35,129.35,0,0,0,251.92,122.56Zm0,213.33a84,84,0,1,1,84-84A84,84,0,0,1,251.92,335.89Z" /><circle cx="386.4" cy="117.44" r="30.23" /></symbol><symbol viewBox="0 0 24 23" id="social-linkedin">
    <path d="M5,2.5C4.99,3.87,3.87,4.97,2.5,4.96s-2.47-1.13-2.46-2.5C0.05,1.11,1.15,0.01,2.5,0C3.88,0,5,1.12,5,2.5z M5,7H0v16h5V7zM13,7H8.02v16H13v-8.4c0-4.66,6-5.06,6,0V23h5V12.86c0-7.88-9-7.58-11-3.7V7z" />
</symbol><symbol id="social-twitter" viewBox="0 0 32 32"><title>social-twitter</title><path d="M31.07,5.94a11.42,11.42,0,0,1-3.56,1,6.63,6.63,0,0,0,2.73-3.67A12.52,12.52,0,0,1,26.3,4.93a5.94,5.94,0,0,0-4.51-2.11,6.43,6.43,0,0,0-6.18,6.65A7.43,7.43,0,0,0,15.77,11,17.13,17.13,0,0,1,3,4a7,7,0,0,0-.84,3.34A6.73,6.73,0,0,0,5,12.91a5.83,5.83,0,0,1-2.8-.82v.09A6.56,6.56,0,0,0,7.1,18.7a5.78,5.78,0,0,1-1.63.22,4.53,4.53,0,0,1-1.16-.12,6.24,6.24,0,0,0,5.78,4.63,11.83,11.83,0,0,1-7.68,2.84,12.12,12.12,0,0,1-1.48-.09,16.53,16.53,0,0,0,9.48,3C21.78,29.18,28,19,28,10.24c0-.28,0-.56,0-.85A13.43,13.43,0,0,0,31.07,5.94Z" /></symbol><symbol id="social-youtube" viewBox="0 0 65 65"><title>social-youtube</title><path d="M54,10H11A11,11,0,0,0,0,21V44A11,11,0,0,0,11,55H54A11,11,0,0,0,65,44V21A11,11,0,0,0,54,10ZM45.7,33.8l-19.5,10a1.49,1.49,0,0,1-2-.6,1.45,1.45,0,0,1-.2-.7v-20A1.54,1.54,0,0,1,25.5,21a1.85,1.85,0,0,1,.7.2l19.5,10a1.63,1.63,0,0,1,.7,2A1.34,1.34,0,0,1,45.7,33.8Z" /></symbol></defs></svg>