<svg xmlns="http://www.w3.org/2000/svg" xmlns:xlink="http://www.w3.org/1999/xlink" version="1.1" x="0px" y="0px" viewBox="0 0 1000 1000" enable-background="new 0 0 1000 1000" xml:space="preserve">
<metadata> Svg Vector Icons : http://www.onlinewebfonts.com/icon </metadata>
<g><path d="M40.6,10v980V10z"/><path d="M71.3,10v980V10z"/><path d="M101.9,10v980V10z"/><path d="M132.5,10v980V10z"/><path d="M163.1,10v980V10z"/><path d="M193.8,10v980V10z"/><path d="M224.4,10v980V10z"/><path d="M255,10v980V10z"/><path d="M285.6,10v980V10z"/><path d="M316.3,10v980V10z"/><path d="M346.9,10v980V10z"/><path d="M377.5,10v980V10z"/><path d="M408.1,10v980V10z"/><path d="M438.8,10v980V10z"/><path d="M469.4,10v980V10z"/><path d="M500,10v980V10z"/><path d="M530.6,10v980V10z"/><path d="M561.3,10v980V10z"/><path d="M591.9,10v980V10z"/><path d="M622.5,10v980V10z"/><path d="M653.1,10v980V10z"/><path d="M683.8,10v980V10z"/><path d="M714.4,10v980V10z"/><path d="M745,10v980V10z"/><path d="M775.6,10v980V10z"/><path d="M806.3,10v980V10z"/><path d="M836.9,10v980V10z"/><path d="M867.5,10v980V10z"/><path d="M898.1,10v980V10z"/><path d="M928.8,10v980V10z"/><path d="M959.4,10v980V10z"/><path d="M10,40.6h980H10z"/><path d="M10,71.3h980H10z"/><path d="M10,101.9h980H10z"/><path d="M10,132.5h980H10z"/><path d="M10,163.1h980H10z"/><path d="M10,193.8h980H10z"/><path d="M10,224.4h980H10z"/><path d="M10,255h980H10z"/><path d="M10,285.6h980H10z"/><path d="M10,316.3h980H10z"/><path d="M10,346.9h980H10z"/><path d="M10,377.5h980H10z"/><path d="M10,408.1h980H10z"/><path d="M10,438.8h980H10z"/><path d="M10,469.4h980H10z"/><path d="M10,500h980H10z"/><path d="M10,530.6h980H10z"/><path d="M10,561.3h980H10z"/><path d="M10,591.9h980H10z"/><path d="M10,622.5h980H10z"/><path d="M10,653.1h980H10z"/><path d="M10,683.8h980H10z"/><path d="M10,714.4h980H10z"/><path d="M10,745h980H10z"/><path d="M10,775.6h980H10z"/><path d="M10,806.3h980H10z"/><path d="M10,836.9h980H10z"/><path d="M10,867.5h980H10z"/><path d="M10,898.1h980H10z"/><path d="M10,928.8h980H10z"/><path d="M10,959.4h980H10z"/><path d="M500,10L10,316.3h980L500,10z M775.6,377.5l30.6,61.3v367.5h122.5V438.8l30.6-61.3H775.6z M530.6,377.5l30.6,61.3v367.5h122.5V438.8l30.6-61.3H530.6z M285.6,377.5l30.6,61.3v367.5h122.5V438.8l30.6-61.3H285.6z M40.6,377.5l30.6,61.3v367.5h122.5V438.8l30.6-61.3H40.6z M40.6,867.5L10,990h980l-30.6-122.5H40.6z M561.3,193.8c0,33.8-27.4,61.3-61.3,61.3c-33.8,0-61.3-27.4-61.3-61.3s27.4-61.3,61.3-61.3C533.8,132.5,561.3,159.9,561.3,193.8z"/></g>
</svg>