<svg width="706" height="720" viewBox="0 0 706 720" fill="none" xmlns="http://www.w3.org/2000/svg">
<g clip-path="url(#clip0_3_4)">
<path d="M360 294.546V433.965H553.746C545.238 478.802 519.708 516.767 481.417 542.294L598.254 632.95C666.327 570.115 705.6 477.823 705.6 368.186C705.6 342.66 703.31 318.112 699.054 294.55L360 294.546Z"/>
<path d="M158.245 428.523L131.894 448.694L38.6191 521.348C97.8557 638.839 219.266 720.004 359.992 720.004C457.191 720.004 538.681 687.931 598.246 632.95L481.41 542.294C449.337 563.894 408.427 576.987 359.992 576.987C266.392 576.987 186.867 513.823 158.392 428.731L158.245 428.523Z"/>
<path d="M38.6195 198.656C14.0752 247.09 0.00390625 301.746 0.00390625 360C0.00390625 418.254 14.0752 472.91 38.6195 521.344C38.6195 521.669 158.404 428.398 158.404 428.398C151.204 406.798 146.948 383.89 146.948 359.996C146.948 336.102 151.204 313.194 158.404 291.594L38.6195 198.656Z"/>
<path d="M360 143.346C413.019 143.346 460.146 161.673 497.782 197.019L600.873 93.929C538.363 35.6752 457.202 0 360 0C219.273 0 97.8557 80.8367 38.6191 198.656L158.4 291.602C186.871 206.51 266.4 143.346 360 143.346Z"/>
</g>
<defs>
<clipPath id="clip0_3_4">
<rect width="705.6" height="720" fill="white"/>
</clipPath>
</defs>
</svg>
