<svg width="176" height="176" viewBox="0 0 176 176" fill="none" xmlns="http://www.w3.org/2000/svg">
<path fill-rule="evenodd" clip-rule="evenodd" d="M68.772 55.603C67.394 52.542 65.944 52.48 64.635 52.427L61.111 52.384C59.885 52.384 57.893 52.844 56.209 54.684C54.525 56.524 49.774 60.971 49.774 70.016C49.774 79.061 56.362 87.801 57.28 89.029C58.198 90.257 69.998 109.41 88.685 116.779C104.214 122.903 107.374 121.685 110.746 121.379C114.118 121.073 121.623 116.932 123.154 112.639C124.685 108.346 124.686 104.668 124.227 103.899C123.768 103.13 122.542 102.673 120.702 101.753C118.862 100.833 109.825 96.386 108.14 95.772C106.455 95.158 105.23 94.853 104.003 96.693C102.776 98.533 99.257 102.672 98.184 103.899C97.111 105.126 96.04 105.28 94.2 104.361C92.36 103.442 86.44 101.5 79.416 95.237C73.951 90.364 70.262 84.346 69.188 82.507C68.114 80.668 69.074 79.672 69.996 78.756C70.821 77.932 71.834 76.609 72.755 75.536C73.676 74.463 73.979 73.696 74.591 72.471C75.203 71.246 74.898 70.17 74.438 69.251C73.978 68.332 70.406 59.239 68.772 55.603Z" fill="black"/>
<path d="M53.811 137.892L56.046 139.216C65.433 144.787 76.196 147.734 87.172 147.739H87.195C120.902 147.739 148.334 120.313 148.348 86.604C148.354 70.269 141.999 54.908 130.453 43.353C124.79 37.6544 118.053 33.1356 110.632 30.0583C103.211 26.9809 95.2529 25.4061 87.219 25.425C53.486 25.425 26.053 52.848 26.041 86.555C26.0244 98.065 29.2656 109.345 35.39 119.09L36.845 121.402L30.666 143.96L53.811 137.892ZM13 161.436L23.439 123.322C17.001 112.168 13.614 99.514 13.618 86.55C13.635 45.994 46.639 13 87.196 13C106.877 13.01 125.35 20.669 139.243 34.572C153.136 48.475 160.78 66.955 160.773 86.609C160.755 127.162 127.746 160.162 87.195 160.162H87.163C74.85 160.157 62.751 157.068 52.004 151.208L13 161.436Z" fill="black"/>
</svg>
